<svg width="1025" height="165" viewBox="0 0 1025 165" fill="none" xmlns="http://www.w3.org/2000/svg">
  <path d="M121.94 33V165H88.6V33H0.47998V0H210.06V33H121.94ZM741.14 0L836.4 165H798.3L774.49 123.75H669.7L645.89 165H607.79L703.05 0H741.15H741.14ZM755.43 90.75L722.09 33L688.75 90.75H755.43ZM612.54 99V66H498.23V33.01H636.36V0.0100098H464.89V165.01H498.23V99.01H612.54V99ZM995.97 66H881.65L872.12 49.5L881.65 33H976.92L986.44 49.5H1024.54L995.96 0H862.59L834.01 49.5L862.59 99H976.91L986.43 115.5L976.91 132H881.64L872.12 115.5H834.02L862.6 165H995.97L1024.55 115.5L995.97 66Z" fill="#2E3192"/>
  <path d="M391.05 0H257.68L210.05 82.5L257.68 165H391.05L438.68 82.5L391.05 0ZM372 132H276.74L248.16 82.5L276.74 33H372L400.58 82.5L372 132Z" fill="#EC008C"/>
</svg>
